<?xml version="1.0" encoding="UTF-8" standalone="no"?>
<svg
   id="Layer_1"
   data-name="Layer 1"
   viewBox="0 0 637.95001 444.87632"
   version="1.1"
   sodipodi:docname="university.svg"
   width="637.95001"
   height="444.87631"
   inkscape:version="1.3 (0e150ed6c4, 2023-07-21)"
   xmlns:inkscape="http://www.inkscape.org/namespaces/inkscape"
   xmlns:sodipodi="http://sodipodi.sourceforge.net/DTD/sodipodi-0.dtd"
   xmlns="http://www.w3.org/2000/svg"
   xmlns:svg="http://www.w3.org/2000/svg">
  <sodipodi:namedview
     id="namedview67"
     pagecolor="#ffffff"
     bordercolor="#000000"
     borderopacity="0.25"
     inkscape:showpageshadow="2"
     inkscape:pageopacity="0.0"
     inkscape:pagecheckerboard="0"
     inkscape:deskcolor="#d1d1d1"
     inkscape:zoom="1.1736005"
     inkscape:cx="216.85403"
     inkscape:cy="235.59976"
     inkscape:window-width="1920"
     inkscape:window-height="1009"
     inkscape:window-x="-8"
     inkscape:window-y="-8"
     inkscape:window-maximized="1"
     inkscape:current-layer="Layer_1" />
  <defs
     id="defs1">
    <style
       id="style1">.cls-1,.cls-4{fill:#606060;}.cls-2{fill:#f84d10;}.cls-3{fill:#444;}.cls-4{font-size:15.01px;font-family:ProductSans-Regular, Product Sans;}.cls-5{letter-spacing:-0.02em;}.cls-6{letter-spacing:-0.01em;}.cls-7{letter-spacing:-0.01em;}.cls-8{letter-spacing:0em;}.cls-10,.cls-11,.cls-12,.cls-13,.cls-9{font-family:ProductSans-Bold, Product Sans;font-weight:700;}.cls-10{letter-spacing:-0.01em;}.cls-11{letter-spacing:0em;}.cls-12,.cls-14{letter-spacing:-0.03em;}.cls-13{letter-spacing:-0.01em;}.cls-15{letter-spacing:0em;}.cls-16{letter-spacing:0.01em;}.cls-17{fill:#18453b;}.cls-18{fill:none;}</style>
  </defs>
  <title
     id="title1">Michigan State University Logo Vector</title>
  <g
     id="g1032"
     transform="translate(-0.05,-0.00369505)">
    <g
       id="g26">
      <g
         id="g989">
        <path
           id="path50"
           class="cls-17"
           d="m 591.52,294.13 -18.94,40.29 c -31.22,-14.41 -72.31,-16.27 -107,4 -22.68,14.15 -41.36,39 -43.23,65.64 -0.53,17.88 6.94,37.09 4.54,55 -0.54,9.61 -2.67,19 -7.47,27.22 -5.87,9.6 -12.54,17.88 -24,18.41 2.4,-3.2 20.28,-12 13.61,-52 -3.2,-16 -24.82,-55.24 -3.74,-104.33 19.2,-44.89 102.71,-98.52 186.23,-54.23 z"
           transform="translate(-181,-277.56)" />
        <path
           id="path51"
           class="cls-17"
           d="m 495.73,373.38 c 10.67,-4 22.95,-4 34.42,-1.33 21.88,4 37.89,16.81 45.9,36.28 8.27,20.28 14.14,36.56 28.55,54.17 0.26,0.53 -22.15,-3.47 -22.15,-4 5.6,-40.29 -32.55,-41.89 -43.23,-26.69 8,8.54 21.62,13.35 32,11.48 -2.13,40 8.81,76.31 8.27,76.31 -9.33,-1.33 -50.69,-25.61 -63,-36.29 -17.88,3.21 -32,9.88 -52.56,12.54 -0.54,0.27 3.73,-14.94 3.2,-22.94 0,-20.82 -16,-40.56 -4.54,-66.44 6.72,-15.75 17.13,-27.47 33.14,-33.09 z"
           transform="translate(-181,-277.56)" />
        <g
           id="g24">
          <path
             id="path52"
             class="cls-17"
             d="m 510.67,361.11 a 28.6,28.6 0 0 1 3.2,0.26 c 0.27,-1.33 1.6,-11.47 10.14,-18.41 9.61,-8 21.88,-7.47 21.88,-7.47 -12.27,-3.74 -25.08,-4 -34.15,-3.2 z"
             transform="translate(-181,-277.56)" />
          <path
             id="path53"
             class="cls-17"
             d="m 431.69,397.39 c -1.87,12 -2.13,22.95 -0.8,28.82 0,0 1.87,-10.14 7.74,-16 5.33,-4.8 11.47,-6.14 13.87,-5.87 0,0 1.34,-4 0.8,-4 z"
             transform="translate(-181,-277.56)" />
          <path
             id="path54"
             class="cls-17"
             d="m 455.71,395.26 a 19.94,19.94 0 0 1 2.4,-4.8 L 436,382.18 a 33.4,33.4 0 0 0 -2.67,9.34 z"
             transform="translate(-181,-277.56)" />
          <path
             id="path55"
             class="cls-17"
             d="m 461,386.72 c 0,0 3.74,-4.54 3.74,-4.27 L 444.5,367.51 a 41.31,41.31 0 0 0 -5.34,8.54 z"
             transform="translate(-181,-277.56)" />
          <path
             id="path56"
             class="cls-17"
             d="m 468.25,378.72 c 0.26,-0.27 4.53,-4 4.53,-4 L 455.17,355 a 42.78,42.78 0 0 0 -7.74,8 z"
             transform="translate(-181,-277.56)" />
          <path
             id="path57"
             class="cls-17"
             d="m 477.59,372.05 c 0,0.26 5.33,-2.67 5.33,-3.21 L 470.11,345.1 a 74.94,74.94 0 0 0 -9.6,5.87 z"
             transform="translate(-181,-277.56)" />
          <path
             id="path58"
             class="cls-17"
             d="m 487.46,366.71 6.13,-2.14 -7.47,-26.41 c -4,1.33 -9.6,3.73 -10.94,4.27 z"
             transform="translate(-181,-277.56)" />
          <path
             id="path59"
             class="cls-17"
             d="m 498.13,363 c 0.27,0.27 5.6,-1.33 5.6,-1.33 l 0.54,-28.55 c -0.27,0.26 -6.67,1.33 -12.28,2.67 z"
             transform="translate(-181,-277.56)" />
        </g>
      </g>
    </g>
    <rect
       id="rect28"
       class="cls-18"
       x="18.780001"
       y="252.69"
       width="576.31"
       height="192.19" />
    <g
       id="g82">
      <g
         id="g50">
        <path
           id="path30"
           class="cls-17"
           d="m 191.52,656.4 v 24.54 c 0,4.2 1.4,9.81 8.76,9.81 6.66,0 9.11,-4.55 9.11,-10.51 v -24.19 a 3.67,3.67 0 0 0 -1.4,-2.81 h 6.31 a 3.16,3.16 0 0 0 -1.4,2.81 v 24.19 c 0,10.16 -5.61,14 -13.32,14 -6.66,0 -14.72,-3.16 -14.72,-13.32 V 656.4 c 0,-1.4 -1.06,-2.1 -1.76,-2.8 H 194 c -1.43,0.7 -2.48,1.4 -2.48,2.8 z"
           transform="translate(-181,-277.56)" />
        <path
           id="path32"
           class="cls-17"
           d="m 286.16,656.4 a 3.64,3.64 0 0 0 -1.4,-2.8 h 6.31 a 3.13,3.13 0 0 0 -1.4,2.8 v 38.91 c 0,0 -26.67,-33.31 -26.67,-33.65 v 29.44 a 3.64,3.64 0 0 0 1.4,2.81 h -6.31 a 3.64,3.64 0 0 0 1.4,-2.81 v -31.55 c 0,-2.45 0,-2.45 -1,-3.85 a 15.22,15.22 0 0 0 -2.45,-2.1 h 9.46 l 20.68,25.94 z"
           transform="translate(-181,-277.56)" />
        <path
           id="path34"
           class="cls-17"
           d="m 345.41,654 c -1.05,0.35 -1.4,1.4 -1.4,2.8 v 34.7 a 2.85,2.85 0 0 0 1.4,2.81 h -10.17 a 2.85,2.85 0 0 0 1.4,-2.81 v -34.7 a 3.64,3.64 0 0 0 -1.4,-2.8 z"
           transform="translate(-181,-277.56)" />
        <path
           id="path36"
           class="cls-17"
           d="m 413.41,656.75 c 0.35,-1.4 0.35,-2.45 -1.05,-2.8 H 419 a 5.44,5.44 0 0 0 -2.1,2.8 c -1.05,2.45 -14.37,38.56 -14.37,38.56 0,0 -14.73,-36.11 -15.78,-38.56 a 6.3,6.3 0 0 0 -3.15,-2.8 h 12.27 c -1.41,0.7 -1.41,1.75 -1.05,3.15 0,0.7 9.46,24.89 9.46,24.89 0,0 9.13,-24.89 9.13,-25.24 z"
           transform="translate(-181,-277.56)" />
        <path
           id="path38"
           class="cls-17"
           d="m 481.07,659.2 a 4.59,4.59 0 0 0 -4.21,-2.1 h -9.46 v 13.67 h 8.41 c 0.7,0 1.75,-1 2.11,-1.75 v 6.31 c -0.36,-0.7 -1.41,-1.75 -2.11,-1.75 h -8.41 v 17.17 c 1.05,0 4.56,0.35 7.36,0.35 4.91,0 7,0 9.11,-3.85 l -1.05,6.66 h -24.18 a 3.12,3.12 0 0 0 1.75,-2.81 v -34.7 a 3.12,3.12 0 0 0 -1.75,-2.8 h 22.43 z"
           transform="translate(-181,-277.56)" />
        <path
           id="path40"
           class="cls-17"
           d="m 542.42,673.58 a 7.77,7.77 0 0 1 6.31,4.55 c 0,0 6.66,11.22 8.76,13.68 a 10.34,10.34 0 0 0 3.51,2.45 h -7.37 a 6.42,6.42 0 0 1 -4.9,-2.81 c -2.46,-3.85 -4.91,-8.06 -7,-11.21 -1.41,-2.46 -2.81,-4.91 -5.26,-4.91 H 534 v 16.12 a 3.62,3.62 0 0 0 1.41,2.81 h -9.82 a 2.85,2.85 0 0 0 1.4,-2.81 v -34.7 a 3.64,3.64 0 0 0 -1.4,-2.8 h 11.92 c 11.57,0 14,6 14,9.81 0.37,6.31 -5.24,9.47 -9.09,9.82 z M 534,656.75 v 15.42 h 2.46 c 3.85,0 7.71,-2.1 7.71,-8.06 0,-2.8 -1.4,-7.36 -7,-7.36 z"
           transform="translate(-181,-277.56)" />
        <path
           id="path42"
           class="cls-17"
           d="m 622.34,682 c 0,7.36 -6.31,12.27 -13,12.27 a 22.72,22.72 0 0 1 -10.87,-2.81 l -0.35,-9.81 c 1.06,4.21 4.56,9.81 10.17,9.81 5.61,0 7.36,-4.2 7.36,-7 0,-5.61 -4.91,-6.31 -9.81,-9.46 -5.26,-3.16 -7.37,-6.31 -7.37,-10.52 0,-8.06 7,-11.22 12.27,-11.22 a 17.42,17.42 0 0 1 8.42,2.11 l 0.35,8.76 c -0.7,-3.15 -3.86,-7.71 -9.47,-7.71 a 5.61,5.61 0 0 0 -6,5.61 c 0,3.5 2.46,4.91 7.72,7.36 4.9,2.8 10.51,4.56 10.51,12.62 z"
           transform="translate(-181,-277.56)" />
        <path
           id="path44"
           class="cls-17"
           d="m 676,654 c -1.06,0.35 -1.41,1.4 -1.41,2.8 v 34.7 a 2.84,2.84 0 0 0 1.41,2.81 h -10.19 a 2.85,2.85 0 0 0 1.4,-2.81 v -34.7 a 3.64,3.64 0 0 0 -1.4,-2.8 z"
           transform="translate(-181,-277.56)" />
        <path
           id="path46"
           class="cls-17"
           d="m 736.62,656.75 v 34.35 a 3.64,3.64 0 0 0 1.4,2.81 h -9.81 a 2.85,2.85 0 0 0 1.4,-2.81 v -34.35 c -4.21,0 -8.76,0.35 -8.76,0.35 -1.41,0 -2.46,1.4 -2.81,2.45 V 654 h 30.5 v 5.6 a 4.23,4.23 0 0 0 -2.45,-2.45 c -0.35,-0.05 -5.26,-0.4 -9.47,-0.4 z"
           transform="translate(-181,-277.56)" />
        <path
           id="path48"
           class="cls-17"
           d="m 819,654 a 7.65,7.65 0 0 0 -3.86,3.5 l -8.76,17.88 v 15.72 c 0,1.41 1,2.11 2.1,2.81 h -11.21 c 0.7,-0.7 1.75,-1.4 1.75,-2.81 V 675.33 L 788.15,656.4 a 5.47,5.47 0 0 0 -2.8,-2.8 H 798 c -1.41,0.7 -2.46,1 -1.05,3.5 l 7.71,14.37 7.34,-15.07 c 0.7,-1.4 0.35,-2.45 -1,-2.8 h 8 z"
           transform="translate(-181,-277.56)" />
      </g>
      <g
         id="g78">
        <path
           id="path60"
           class="cls-17"
           d="m 225.87,561.4 h 13 a 3.52,3.52 0 0 0 -2.1,3.51 v 48.37 a 3.52,3.52 0 0 0 2.1,3.51 h -14 a 3.52,3.52 0 0 0 2.1,-3.51 v -42.76 l -0.7,1.75 -18.58,45.92 -18.93,-44.52 -0.7,-2.1 v 42.06 a 3.52,3.52 0 0 0 2.1,3.51 h -8.76 a 4.11,4.11 0 0 0 2.1,-3.51 v -48.37 a 4.43,4.43 0 0 0 -2.45,-3.51 h 13.67 l 15.43,37.51 z"
           transform="translate(-181,-277.56)" />
        <path
           id="path61"
           class="cls-17"
           d="m 265.83,561.4 a 3.52,3.52 0 0 0 -2.1,3.51 v 48.37 a 3.52,3.52 0 0 0 2.1,3.51 h -14 a 3.52,3.52 0 0 0 2.1,-3.51 v -48.37 c 0,-1.76 -0.7,-3.16 -2.1,-3.51 z"
           transform="translate(-181,-277.56)" />
        <path
           id="path62"
           class="cls-17"
           d="m 325.08,577.53 c -4.91,-11.22 -13.68,-12.62 -17.53,-12.62 -13.32,0 -20.68,10.16 -20.68,23.48 0,11.22 5.25,24.89 21.38,24.89 3.5,0 12.27,-1.4 17.53,-12.62 0,-0.35 -0.7,11.92 -0.7,11.92 a 37.6,37.6 0 0 1 -19.63,5.26 c -15.43,0 -28.75,-10.87 -28.75,-28.4 0,-14.37 10.17,-28.74 29.8,-28.74 a 42,42 0 0 1 18.23,4.21 c -0.36,0 0.7,12.97 0.35,12.62 z"
           transform="translate(-181,-277.56)" />
        <path
           id="path63"
           class="cls-17"
           d="m 370.65,561.4 h 14 a 3.52,3.52 0 0 0 -2.1,3.51 v 48.37 a 3.52,3.52 0 0 0 2.1,3.51 h -14 a 3.52,3.52 0 0 0 2.1,-3.51 v -24.89 h -24.19 v 24.89 a 3.51,3.51 0 0 0 2.11,3.51 h -14 a 3.51,3.51 0 0 0 2.11,-3.51 v -48.37 c 0,-1.76 -0.7,-3.16 -2.11,-3.51 h 14 a 3.51,3.51 0 0 0 -2.11,3.51 v 19.28 h 24.19 v -19.28 a 3.85,3.85 0 0 0 -2.1,-3.51 z"
           transform="translate(-181,-277.56)" />
        <path
           id="path64"
           class="cls-17"
           d="m 411.31,561.4 a 3.52,3.52 0 0 0 -2.1,3.51 v 48.37 a 3.52,3.52 0 0 0 2.1,3.51 h -14 a 3.52,3.52 0 0 0 2.1,-3.51 v -48.37 c 0,-1.76 -0.7,-3.16 -2.1,-3.51 z"
           transform="translate(-181,-277.56)" />
        <path
           id="path65"
           class="cls-17"
           d="m 470.2,564.91 0.7,13 a 18.5,18.5 0 0 0 -17.52,-13 c -13.32,0 -20.69,10.16 -20.69,23.48 0,11.22 5.26,24.89 21.39,24.89 1.75,0 6.31,0 9.81,-2.8 v -14 a 4,4 0 0 0 -2.1,-3.86 h 14 a 4.28,4.28 0 0 0 -2.1,3.86 v 12.27 c 0,1.75 0.7,3.15 1.4,3.5 -6.66,3.86 -17.53,6 -23.84,6 -15.42,0 -29.09,-10.87 -29.09,-28.39 0,-14.38 10.16,-28.75 30.15,-28.75 a 36.65,36.65 0 0 1 17.89,3.8 z"
           transform="translate(-181,-277.56)" />
        <path
           id="path66"
           class="cls-17"
           d="m 527,613.28 c 0.7,1.76 1.4,2.46 3.86,3.86 H 514 c 2.11,-1 2.46,-2.46 1.75,-3.86 -0.35,-0.7 -2.1,-6 -4.55,-11.22 h -18.91 c -2.46,5.61 -4.21,10.52 -4.21,11.22 -0.7,2.11 -0.35,3.16 1.75,4.21 h -10.51 a 8.72,8.72 0 0 0 3.5,-3.86 c 1.41,-3.15 21.74,-53.28 21.74,-53.28 0,0 21.03,49.78 22.44,52.93 z m -17.17,-15.77 c -3.51,-9.12 -8.07,-20 -8.07,-20 0,0 -5.26,14 -7.71,20 z"
           transform="translate(-181,-277.56)" />
        <path
           id="path67"
           class="cls-17"
           d="m 574.67,565.26 c 0,-1.76 -0.7,-3.16 -2.11,-3.51 h 8.77 a 4.12,4.12 0 0 0 -2.11,3.51 v 54.33 c 0,0 -37.15,-46.27 -37.15,-47 v 41 a 3.52,3.52 0 0 0 2.1,3.51 h -8.76 a 4.11,4.11 0 0 0 2.1,-3.51 v -43.78 c 0,-3.15 0,-3.15 -1.4,-5.25 a 10.45,10.45 0 0 0 -3.51,-3.16 h 13.32 l 28.75,36.11 z"
           transform="translate(-181,-277.56)" />
        <path
           id="path68"
           class="cls-17"
           d="m 644.78,600.66 c 0,10.17 -8.42,17.18 -18.23,17.18 A 29.91,29.91 0 0 1 611.83,614 l -0.36,-13.67 c 1.41,6 6,13.32 14.38,13.32 7.71,0 10.16,-6 10.16,-9.81 0,-7.71 -6.66,-8.77 -13.67,-13 -7.01,-4.23 -10.16,-8.42 -10.16,-14.73 0,-11.21 9.81,-15.42 16.82,-15.42 a 23.11,23.11 0 0 1 11.57,3.15 l 0.35,12.27 c -1,-4.2 -5.61,-10.86 -13,-10.86 -6,0 -8.06,4.2 -8.06,7.71 0,4.91 3.5,7 10.51,10.52 7.05,3.16 14.41,5.96 14.41,17.18 z"
           transform="translate(-181,-277.56)" />
        <path
           id="path70"
           class="cls-17"
           d="m 676,565.61 v 47.67 a 3.52,3.52 0 0 0 2.1,3.51 h -14 a 3.52,3.52 0 0 0 2.1,-3.51 v -47.67 c -5.61,0 -12.27,0.7 -12.27,0.7 -1.75,0 -3.15,1.75 -3.85,3.15 v -8.06 h 42.41 v 8.06 c -0.7,-1.4 -1.75,-3.15 -3.5,-3.15 -0.39,0 -7.41,-0.7 -12.99,-0.7 z"
           transform="translate(-181,-277.56)" />
        <path
           id="path72"
           class="cls-17"
           d="m 732.76,613.28 c 0.71,1.76 1.41,2.46 3.86,3.86 h -16.47 c 2.1,-1 2.45,-2.46 1.75,-3.86 -0.35,-0.7 -2.11,-6 -4.56,-11.22 h -18.93 c -2.45,5.61 -4.21,10.52 -4.21,11.22 -0.7,2.11 -0.35,3.16 1.76,4.21 h -10.87 a 8.81,8.81 0 0 0 3.51,-3.86 c 1.4,-3.15 21.73,-53.28 21.73,-53.28 0,0 21.03,49.78 22.43,52.93 z m -17.17,-15.77 c -3.51,-9.12 -8.06,-20 -8.06,-20 0,0 -5.26,14 -7.72,20 z"
           transform="translate(-181,-277.56)" />
        <path
           id="path74"
           class="cls-17"
           d="m 756.6,565.61 v 47.67 a 3.51,3.51 0 0 0 2.11,3.51 h -14 a 3.51,3.51 0 0 0 2.11,-3.51 v -47.67 c -5.61,0 -12.27,0.7 -12.27,0.7 -1.76,0 -3.16,1.75 -3.86,3.15 v -8.06 h 42.42 v 8.06 c -0.7,-1.4 -1.75,-3.15 -3.51,-3.15 -0.03,0 -7.04,-0.7 -13,-0.7 z"
           transform="translate(-181,-277.56)" />
        <path
           id="path76"
           class="cls-17"
           d="m 813,568.76 c -1.4,-2.1 -3.15,-2.8 -6,-2.8 h -13.24 v 18.93 h 11.57 c 1,0 2.45,-1.4 2.8,-2.46 v 8.77 c -0.35,-1.05 -1.75,-2.46 -2.8,-2.46 h -11.57 v 24.19 a 42.76,42.76 0 0 0 10.17,0.35 c 6.66,0 9.81,0 12.62,-5.26 l -1.76,9.47 h -33.3 A 3.82,3.82 0 0 0 784,614 v -48.39 a 3.49,3.49 0 0 0 -2.46,-3.51 h 31.2 z"
           transform="translate(-181,-277.56)" />
      </g>
      <rect
         id="rect80"
         class="cls-17"
         x="0.69999999"
         y="353.95001"
         width="636.25"
         height="4.21" />
    </g>
  </g>
</svg>
